<svg xmlns="http://www.w3.org/2000/svg" viewBox="0 0 112.84 118.99"><defs><style>.cls-1{fill:#fff;}</style></defs><g id="图层_2" data-name="图层 2"><g id="宽_图像" data-name="宽 图像"><path class="cls-1" d="M56.42,9.4A12.62,12.62,0,1,0,69,22,12.62,12.62,0,0,0,56.42,9.4Zm0,78.36-9.25-4.47,9.25-4.47,9.25,4.47Zm4.7-28.65V74.46l-4.7,2.36-4.7-2.36V59.11L21,74.46l35.4,17.71,35.4-17.71Zm-9.4-15.58a22,22,0,1,1,9.4,0V48.6l51.72,25.86L56.42,102.68,0,74.46,51.72,48.6Zm61.11,36.73V91.78L56.42,119,0,91.78V80.26l56.42,28.22Z"/></g></g></svg>