<svg xmlns="http://www.w3.org/2000/svg" xmlns:xlink="http://www.w3.org/1999/xlink" viewBox="0 0 819.2 758.01"><defs><style>.cls-1{fill:none;}.cls-2{clip-path:url(#clip-path);}.cls-3{fill:#fff;}</style><clipPath id="clip-path" transform="translate(0.12 -0.87)"><rect class="cls-1" width="819.84" height="759.84"/></clipPath></defs><g id="图层_2" data-name="图层 2"><g id="图层_1-2" data-name="图层 1"><g class="cls-2"><path class="cls-3" d="M6.64,592.92A33,33,0,0,1,0,573.42V540.83s0-19.49,19.22-10.69c0,0,236.16,107,274.19,123.77a267.2,267.2,0,0,0,116.32,24.88,280.3,280.3,0,0,0,115.92-24.88L800,530.14c19.08-8.8,19.08,10.69,19.08,10.69v32.59a35.43,35.43,0,0,1-6.76,19.63c-6.48,8.81-17.58,18.4-48.16,32.74C739.82,637.29,551.51,722,525.4,734a273.38,273.38,0,0,1-116,24.88A284.54,284.54,0,0,1,279,727.23C230,705,79.31,637.42,54.8,625.79c-30.72-14.61-39.35-22.33-48.16-32.87ZM54.8,389,293.29,280.83a272.43,272.43,0,0,1,73.86-21.64V454c0,13.52,19.5,23.79,42.2,23.79S448.29,467.1,448.29,454V259.74a303.28,303.28,0,0,1,77.24,21.09L764,389c19.76,9.32,54.91,26,54.91,52.49S784.43,483.72,764,493.76L525.53,602a280,280,0,0,1-115.91,24.89A267.4,267.4,0,0,1,293.29,602L54.8,493.76c-20.41-10-54.92-26-54.92-52.36S35,398.25,54.8,389Zm61.68,76.7a91.55,91.55,0,0,0,83.73,0c23.28-13.52,23.41-35,0-48.44a92.35,92.35,0,0,0-83.73,0c-23.21,13.38-22.73,34.81,0,48.44Zm293-236.17A114.35,114.35,0,1,1,523.79,115.19v.1A114.31,114.31,0,0,1,409.48,229.57Z" transform="translate(0.12 -0.87)"/></g></g></g></svg>