<?xml version="1.0" encoding="utf-8"?>
<!-- Generator: Adobe Illustrator 23.0.3, SVG Export Plug-In . SVG Version: 6.00 Build 0)  -->
<svg version="1.1" id="图层_1" xmlns="http://www.w3.org/2000/svg" xmlns:xlink="http://www.w3.org/1999/xlink" x="0px" y="0px"
	 viewBox="0 0 283.46 283.46" style="enable-background:new 0 0 283.46 283.46;" xml:space="preserve">
<style type="text/css">
	.st0{fill:#CDCDCD;}
	.st1{fill:#5CB85C;}
	.st2{fill:#313232;}
	.st3{fill:#323232;}
	.st4{fill:none;}
</style>
<path class="st3" d="M254.35,247.4L154.07,17.5c-4.63-10.61-19.68-10.62-24.32-0.01L29.15,247.4H14.27C6.94,247.4,1,253.34,1,260.66
	v0c0,7.33,5.94,13.27,13.27,13.27H269.2c7.33,0,13.27-5.94,13.27-13.27v0c0-7.33-5.94-13.27-13.27-13.27H254.35z M169.33,243.63
	l41.96-24.22l10.57,24.22H169.33z M57.19,243.63l8.39-19.19l118.14-68.21l17.06,39.09l-83.68,48.31H57.19z M83.26,184.1l23.38-53.42
	l52.7-30.42l13.88,31.89L83.26,184.1z M124.3,90.34l15.37-35.13l9.14,20.97L124.3,90.34z"/>
<polygon class="st1" points="169.33,243.63 211.29,219.41 221.86,243.63 "/>
<polygon class="st1" points="83.26,184.1 106.65,130.68 159.34,100.26 173.22,132.15 "/>
</svg>
