<?xml version="1.0" encoding="utf-8"?>
<!-- Generator: Adobe Illustrator 23.0.3, SVG Export Plug-In . SVG Version: 6.00 Build 0)  -->
<svg version="1.1" id="图层_1" xmlns="http://www.w3.org/2000/svg" xmlns:xlink="http://www.w3.org/1999/xlink" x="0px" y="0px"
	 viewBox="0 0 283.46 283.46" style="enable-background:new 0 0 283.46 283.46;" xml:space="preserve">
<style type="text/css">
	.st0{fill:#CDCDCD;}
	.st1{fill:#FFC800;}
	.st2{fill:#313232;}
	.st3{fill:#323232;}
	.st4{fill:none;}
</style>
<g>
	<path class="st3" d="M229.96,11.8H37.11c-9.68,0-17.53,7.85-17.53,17.53v40.21v24.64v18.65v24.64v18.65v24.64v18.65v24.64v19.6
		v20.61c0,9.68,7.85,17.53,17.53,17.53h192.85c18.74,0,33.93-15.19,33.93-33.93V45.73C263.89,26.99,248.7,11.8,229.96,11.8z
		 M247.13,247.84c0,9.48-7.69,17.17-17.17,17.17H37.11c-0.43,0-0.77-0.34-0.77-0.77v-24.87l0,0V54.56l0,0V29.33
		c0-0.43,0.34-0.77,0.77-0.77h142.38c0.36-0.34,0.72-0.69,1.12-1.01c3.78-3.02,8.45-4.53,14.03-4.53c6.97,0,12.49,1.71,16.55,5.14
		c0.15,0.13,0.28,0.27,0.43,0.4h18.35c9.48,0,17.17,7.69,17.17,17.17V247.84z"/>
	<path class="st1" d="M205.22,1.69h-79.3c-11.46,0-20.84,9.38-20.84,20.84v173.62l60.49-24.09l60.49,24.09V22.53
		C226.06,11.07,216.69,1.69,205.22,1.69z M177.53,149.1h-22.97v-22.19h22.97V149.1z M199.72,84.27c-2.73,3.78-7.45,8.08-14.16,12.9
		c-3.67,2.62-6.08,4.98-7.24,7.08c-1.57,2.83-2.36,6.87-2.36,12.12h-20.77c0-8.18,0.84-14.11,2.52-17.78
		c2.1-4.51,6.61-9.23,13.53-14.16c6.5-4.51,9.76-9.7,9.76-15.58c0-5.66-1.68-9.81-5.04-12.43c-2.62-2.1-6.03-3.15-10.23-3.15
		c-4.83,0-8.68,1.34-11.57,4.01c-2.89,2.68-4.7,7.37-5.43,14.08l-22.19,0.16c0-12.48,4.14-22.03,12.43-28.64
		c6.82-5.45,15.26-8.18,25.34-8.18c12.59,0,22.55,3.1,29.9,9.28c6.92,5.77,10.39,13.85,10.39,24.23
		C204.6,74.31,202.97,79.66,199.72,84.27z"/>
	<rect x="67.15" y="11.8" class="st3" width="16.76" height="269.97"/>
</g>
</svg>
