<?xml version="1.0" encoding="utf-8"?>
<!-- Generator: Adobe Illustrator 23.0.3, SVG Export Plug-In . SVG Version: 6.00 Build 0)  -->
<svg version="1.1" id="图层_1" xmlns="http://www.w3.org/2000/svg" xmlns:xlink="http://www.w3.org/1999/xlink" x="0px" y="0px"
	 viewBox="0 0 283.46 283.46" style="enable-background:new 0 0 283.46 283.46;" xml:space="preserve">
<style type="text/css">
	.st0{fill:#CDCDCD;}
	.st1{fill:#FFC800;}
	.st2{fill:#313232;}
	.st3{fill:#323232;}
	.st4{fill:none;}
</style>
<rect x="128.58" y="240.73" class="st0" width="30.63" height="30.63"/>
<rect x="184.76" y="240.73" class="st0" width="30.63" height="30.63"/>
<polygon class="st0" points="240.91,240.73 271.53,240.73 271.53,271.36 240.91,271.36 240.91,240.73 "/>
<path class="st1" d="M38.24,187.34c-3.19,3.19-5.2,7.08-6.14,11.15l-19.85,60.84l0.09,0.09c-0.97,3.16-0.22,6.73,2.29,9.27
	c2.44,2.44,5.92,3.19,9.05,2.35l0.03,0.03l61.19-19.79l-0.03-0.03c4.07-0.97,7.99-2.97,11.15-6.14l132.87-132.87l-57.77-57.81
	L38.24,187.34z"/>
<path class="st0" d="M265.17,75.92c9.11-9.11,7.86-31.25-4.42-44.25l-4.6-4.89l-4.73-4.45c-12.31-12.34-34.92-13.31-44.03-4.2
	l-14.19,14.19l57.77,57.77L265.17,75.92z"/>
</svg>
