<?xml version="1.0" encoding="utf-8"?>
<!-- Generator: Adobe Illustrator 23.0.3, SVG Export Plug-In . SVG Version: 6.00 Build 0)  -->
<svg version="1.1" id="图层_1" xmlns="http://www.w3.org/2000/svg" xmlns:xlink="http://www.w3.org/1999/xlink" x="0px" y="0px"
	 viewBox="0 0 283.46 283.46" style="enable-background:new 0 0 283.46 283.46;" xml:space="preserve">
<style type="text/css">
	.st0{fill:#CDCDCD;}
	.st1{fill:#3498DB;}
	.st2{fill:#313232;}
	.st3{fill:#323232;}
	.st4{fill:none;}
</style>
<g>
	<path class="st0" d="M136.33,185.43c4.39-4.24,7.11-10.17,7.11-16.75v-6.2c0-12.85-10.42-23.27-23.27-23.27
		s-23.27,10.42-23.27,23.27v6.2c-0.01,6.32,2.56,12.37,7.11,16.75c-19.15,6.84-31.94,24.98-31.94,45.32c0,6,4.86,10.86,10.86,10.86
		h74.48c6,0,10.86-4.86,10.86-10.86C168.27,210.41,155.48,192.27,136.33,185.43z M106.2,162.48c0-7.71,6.25-13.96,13.96-13.96
		c7.71,0,13.96,6.25,13.96,13.96v6.2c0,7.71-6.25,13.96-13.96,13.96s-13.96-6.25-13.96-13.96V162.48z M157.41,232.3H82.93
		c-0.86,0-1.55-0.69-1.55-1.55c0,0,0,0,0-0.01c0-21.42,17.37-38.79,38.79-38.79c0,0,0,0,0.01,0c21.42,0,38.79,17.37,38.78,38.8
		C158.95,231.61,158.26,232.3,157.41,232.3z"/>
	<path class="st0" d="M237.4,11.8H60.96c-18.74,0-33.93,15.19-33.93,33.93v23.81H14.97c-1.56,0-2.83,1.28-2.83,2.83v18.97
		c0,1.56,1.28,2.83,2.83,2.83h12.06v18.65H14.97c-1.56,0-2.83,1.28-2.83,2.83v18.97c0,1.56,1.28,2.83,2.83,2.83h12.06v18.65H14.97
		c-1.56,0-2.83,1.28-2.83,2.83v18.97c0,1.56,1.28,2.83,2.83,2.83h12.06v18.65H14.97c-1.56,0-2.83,1.28-2.83,2.83v18.97
		c0,1.56,1.28,2.83,2.83,2.83h12.06v23.81c0,18.74,15.19,33.93,33.93,33.93H237.4c18.74,0,33.93-15.19,33.93-33.93V45.73
		C271.33,26.99,256.14,11.8,237.4,11.8z M254.58,247.84c0,9.47-7.7,17.17-17.17,17.17H60.96c-9.47,0-17.17-7.7-17.17-17.17v-23.81
		h13.99c1.56,0,2.83-1.28,2.83-2.83v-18.97c0-1.56-1.28-2.83-2.83-2.83H43.78v-18.65h13.99c1.56,0,2.83-1.28,2.83-2.83v-18.97
		c0-1.56-1.28-2.83-2.83-2.83H43.78v-18.65h13.99c1.56,0,2.83-1.28,2.83-2.83v-18.97c0-1.56-1.28-2.83-2.83-2.83H43.78V94.17h13.99
		c1.56,0,2.83-1.28,2.83-2.83V72.37c0-1.56-1.28-2.83-2.83-2.83H43.78V45.73c0-9.47,7.7-17.17,17.17-17.17h125.98
		c0.36-0.34,0.72-0.69,1.12-1.01c3.78-3.02,8.45-4.53,14.03-4.53c6.97,0,12.49,1.71,16.55,5.14c0.15,0.13,0.28,0.27,0.43,0.4h18.35
		c9.47,0,17.17,7.7,17.17,17.17V247.84z"/>
</g>
<path class="st1" d="M222.92,1.69h-40.3c-7.9,0-14.36,6.46-14.36,14.36v104.11l34.51-16.6l34.51,16.6V16.05
	C237.29,8.15,230.82,1.69,222.92,1.69z M209.4,86.35h-12.72V74.07h12.72V86.35z M221.68,50.46c-1.51,2.09-4.12,4.47-7.84,7.14
	c-2.03,1.45-3.37,2.76-4.01,3.92c-0.87,1.57-1.31,3.8-1.31,6.71h-11.5c0-4.53,0.46-7.81,1.39-9.84c1.16-2.5,3.66-5.11,7.49-7.84
	c3.6-2.5,5.4-5.37,5.4-8.62c0-3.14-0.93-5.43-2.79-6.88c-1.45-1.16-3.34-1.74-5.66-1.74c-2.67,0-4.81,0.74-6.4,2.22
	c-1.6,1.48-2.6,4.08-3.01,7.8l-12.28,0.09c0-6.91,2.29-12.2,6.88-15.85c3.78-3.02,8.45-4.53,14.03-4.53
	c6.97,0,12.49,1.71,16.55,5.14c3.83,3.19,5.75,7.67,5.75,13.42C224.38,44.94,223.48,47.91,221.68,50.46z"/>
</svg>
