<?xml version="1.0" encoding="utf-8"?>
<!-- Generator: Adobe Illustrator 23.0.3, SVG Export Plug-In . SVG Version: 6.00 Build 0)  -->
<svg version="1.1" id="图层_1" xmlns="http://www.w3.org/2000/svg" xmlns:xlink="http://www.w3.org/1999/xlink" x="0px" y="0px"
	 viewBox="0 0 283.46 283.46" style="enable-background:new 0 0 283.46 283.46;" xml:space="preserve">
<style type="text/css">
	.st0{fill:#CDCDCD;}
	.st1{fill:#5CB85C;}
	.st2{fill:#313232;}
	.st3{fill:#323232;}
	.st4{fill:none;}
</style>
<rect x="123.57" y="236.43" class="st2" width="30.63" height="30.63"/>
<rect x="179.75" y="236.43" class="st2" width="30.63" height="30.63"/>
<polygon class="st2" points="235.89,236.43 266.52,236.43 266.52,267.06 235.89,267.06 235.89,236.43 "/>
<path class="st1" d="M33.23,183.04c-3.19,3.19-5.2,7.08-6.14,11.15L7.24,255.03l0.09,0.09c-0.97,3.16-0.22,6.73,2.29,9.27
	c2.44,2.44,5.92,3.19,9.05,2.35l0.03,0.03l61.19-19.79l-0.03-0.03c4.07-0.97,7.99-2.97,11.15-6.14l132.87-132.87l-57.77-57.81
	L33.23,183.04z"/>
<path class="st3" d="M166.09,72.78l35.15,35.17L79.69,229.5c-1.13,1.13-2.55,1.65-3.55,1.89c-0.78,0.19-1.53,0.43-2.26,0.72
	l-47.33,15.31l15.75-48.27c0.15-0.45,0.27-0.9,0.38-1.37c0.31-1.35,0.94-2.51,1.86-3.43L166.09,72.78 M166.09,50.14L33.23,183.04
	c-3.19,3.19-5.2,7.08-6.14,11.15L7.24,255.03l0.09,0.09c-0.97,3.16-0.22,6.73,2.29,9.27c1.8,1.8,4.16,2.68,6.54,2.68
	c0.85,0,1.69-0.11,2.51-0.33l0.03,0.03l61.19-19.79l-0.03-0.03c4.07-0.97,7.99-2.97,11.15-6.14l132.87-132.87L166.09,50.14
	L166.09,50.14z"/>
<path class="st1" d="M260.16,71.63c9.11-9.11,7.86-31.25-4.42-44.25l-4.6-4.89l-4.73-4.45c-12.31-12.34-34.92-13.31-44.03-4.2
	L188.2,28.04l57.77,57.77L260.16,71.63z"/>
<path class="st3" d="M220.2,23.79c5.67,0,11.51,2.18,14.88,5.56c0.12,0.12,0.24,0.24,0.37,0.36l4.38,4.12l4.28,4.55
	c3.14,3.32,5.33,8.37,5.87,13.49c0.5,4.74-0.59,7.81-1.14,8.46l-2.87,2.87l-35.15-35.15l2.84-2.84
	C214.02,24.9,216.14,23.79,220.2,23.79 M220.2,7.79c-7.2,0-13.81,2.06-17.82,6.06L188.2,28.04l57.77,57.77l14.19-14.19
	c9.11-9.11,7.86-31.25-4.42-44.25l-4.6-4.89l-4.73-4.45C239.52,11.13,229.38,7.79,220.2,7.79L220.2,7.79z"/>
</svg>
