<?xml version="1.0" encoding="utf-8"?>
<!-- Generator: Adobe Illustrator 23.0.3, SVG Export Plug-In . SVG Version: 6.00 Build 0)  -->
<svg version="1.1" id="图层_1" xmlns="http://www.w3.org/2000/svg" xmlns:xlink="http://www.w3.org/1999/xlink" x="0px" y="0px"
	 viewBox="0 0 283.46 283.46" style="enable-background:new 0 0 283.46 283.46;" xml:space="preserve">
<style type="text/css">
	.st0{fill:#CDCDCD;}
	.st1{fill:#F35612;}
	.st2{fill:#313232;}
	.st3{fill:#323232;}
	.st4{fill:none;}
</style>
<path class="st0" d="M165.02,9.41c-42.28,0-78.4,23.88-96.8,58.82c-34.93,18.39-58.82,54.52-58.82,96.8
	c0,60.04,48.99,109.04,109.04,109.04c42.28,0,78.4-23.88,96.8-58.82c34.93-18.36,58.82-55.11,58.82-96.8l0,0
	C274.06,58.4,225.03,9.41,165.02,9.41z M183.38,229.96c-8.57,8.57-18.39,15.32-29.41,19.62c-11.64,4.9-23.29,7.34-36.16,7.34
	c-12.24,0-24.51-2.45-36.16-7.34c-11.02-4.9-20.84-11.02-29.41-19.62c-8.57-8.57-15.32-18.39-19.62-29.41
	c-4.9-11.64-7.34-23.29-7.34-36.16c0-12.24,2.45-24.51,7.34-36.16c4.9-11.02,11.02-20.84,19.62-29.41l5.52-5.52
	c-1.22,5.52-1.85,11.02-2.45,17.17v6.75c0,35.53,17.17,66.79,42.87,87l1.22,1.22c0.63,0.63,1.22,0.63,1.22,1.22
	c1.22,0.63,1.85,1.22,3.08,2.45c17.17,11.02,37.38,17.76,59.41,17.76h6.75c6.12-0.6,11.64-1.22,17.17-2.45
	C187.05,226.29,185.23,228.11,183.38,229.96z M201.84,203.55c-11.44,5.07-24.1,7.89-37.42,7.89c-51.07,0-92.47-41.4-92.47-92.47
	c0-13.74,3-26.79,8.38-38.51c11.44-5.07,24.1-7.89,37.42-7.89c51.07,0,92.47,41.4,92.47,92.47
	C210.22,178.79,207.22,191.83,201.84,203.55z M249.54,155.2c-4.9,11.02-11.02,20.84-19.62,29.41c-1.22,0.63-3.67,2.48-5.49,4.3
	c1.22-5.52,1.85-11.02,2.45-17.17v-6.75c0-39.83-21.44-74.73-53.92-93.72c-0.6-0.63-1.22-0.63-1.85-0.63
	c-0.63-0.63-1.22-0.63-1.85-1.22l-3.67-1.85c-14.69-7.34-31.23-11.02-48.4-11.02h-6.75c-6.12,0.6-11.64,1.22-17.17,2.45l5.52-5.52
	c8.57-8.57,18.39-15.32,29.41-19.62c11.64-4.9,23.29-7.34,36.16-7.34c12.24,0,24.51,2.45,36.16,7.34
	c11.02,4.9,20.84,11.02,29.41,19.62c8.57,8.57,15.32,18.39,19.62,29.41c4.9,11.64,7.34,23.29,7.34,36.16
	C256.89,131.28,254.44,143.55,249.54,155.2z"/>
<path class="st1" d="M178.46,115.39c-3.04-3.12-7.98-3.12-11.02,0l-34.89,35.75l-16.53-16.93c-3.04-3.12-7.98-3.12-11.02,0
	c-3.04,3.12-3.04,8.17,0,11.29l22.04,22.58c3.04,3.12,7.98,3.12,11.02,0l40.4-41.4C181.5,123.56,181.5,118.51,178.46,115.39z"/>
</svg>
