<?xml version="1.0" encoding="utf-8"?>
<!-- Generator: Adobe Illustrator 23.0.3, SVG Export Plug-In . SVG Version: 6.00 Build 0)  -->
<svg version="1.1" id="图层_1" xmlns="http://www.w3.org/2000/svg" xmlns:xlink="http://www.w3.org/1999/xlink" x="0px" y="0px"
	 viewBox="0 0 283.46 283.46" style="enable-background:new 0 0 283.46 283.46;" xml:space="preserve">
<style type="text/css">
	.st0{fill:#CDCDCD;}
	.st1{fill:#FFC800;}
	.st2{fill:#313232;}
	.st3{fill:#323232;}
	.st4{fill:none;}
</style>
<ellipse class="st1" cx="82.9" cy="215.59" rx="50.4" ry="47.77"/>
<path class="st3" d="M82.9,182.46c19.72,0,35.77,14.87,35.77,33.14s-16.04,33.14-35.77,33.14c-19.72,0-35.77-14.87-35.77-33.14
	S63.18,182.46,82.9,182.46 M82.9,167.82c-27.83,0-50.4,21.39-50.4,47.77c0,26.38,22.56,47.77,50.4,47.77s50.4-21.39,50.4-47.77
	C133.3,189.21,110.73,167.82,82.9,167.82L82.9,167.82z"/>
<ellipse class="st1" cx="200.57" cy="215.59" rx="50.4" ry="47.77"/>
<path class="st3" d="M200.57,182.46c19.72,0,35.77,14.87,35.77,33.14s-16.04,33.14-35.77,33.14s-35.77-14.87-35.77-33.14
	S180.84,182.46,200.57,182.46 M200.57,167.82c-27.83,0-50.4,21.39-50.4,47.77c0,26.38,22.56,47.77,50.4,47.77
	c27.83,0,50.4-21.39,50.4-47.77C250.96,189.21,228.4,167.82,200.57,167.82L200.57,167.82z"/>
<path class="st3" d="M161.31,216.73h-9c0-2.49-0.95-4.4-2.9-5.85c-1.93-1.44-4.73-2.26-7.68-2.26c-3.93,0-10.57,1.71-10.57,8.12h-9
	c0-11.24,9.85-17.12,19.57-17.12S161.31,205.5,161.31,216.73z"/>
<g>
	<path class="st3" d="M43.09,221.06H24.52c-4.97,0-8.72-4.5-7.82-9.39L43.42,65.83c0.78-4.28,2.71-8.26,5.57-11.53l28.3-32.32
		c2-2.29,5.48-2.52,7.76-0.52l0,0c2.29,2,2.52,5.48,0.52,7.76l-26.3,30.04c-2.86,3.27-4.79,7.26-5.57,11.53L28.17,210.06h14.92
		V221.06z"/>
	<path class="st3" d="M258.95,221.06h-18.58v-11h14.92L229.77,70.8c-0.78-4.28-2.71-8.26-5.57-11.53l-26.3-30.04
		c-2-2.29-1.77-5.76,0.52-7.76l0,0c2.29-2,5.76-1.77,7.76,0.52l28.3,32.32c2.86,3.27,4.79,7.26,5.57,11.53l26.73,145.84
		C267.67,216.56,263.92,221.06,258.95,221.06z"/>
</g>
</svg>
