<?xml version="1.0" encoding="utf-8"?>
<!-- Generator: Adobe Illustrator 23.0.3, SVG Export Plug-In . SVG Version: 6.00 Build 0)  -->
<svg version="1.1" id="图层_1" xmlns="http://www.w3.org/2000/svg" xmlns:xlink="http://www.w3.org/1999/xlink" x="0px" y="0px"
	 viewBox="0 0 283.46 283.46" style="enable-background:new 0 0 283.46 283.46;" xml:space="preserve">
<style type="text/css">
	.st0{fill:#CDCDCD;}
	.st1{fill:#C0392B;}
	.st2{fill:#313232;}
	.st3{fill:#323232;}
	.st4{fill:none;}
</style>
<path class="st0" d="M196.66,270.98H93.26c-28.44,0-54.93-26.5-54.93-56.22V83.57c0-7.11,5.82-12.93,12.93-12.93
	s12.93,5.82,12.93,12.93v131.19c0,14.86,14.86,30.37,29.08,30.37h103.4c14.22,0,22.62-15.51,22.62-30.37V83.57
	c0-7.11,5.82-12.93,12.93-12.93s12.93,5.82,12.93,12.93v131.19C245.13,242.55,227.04,270.98,196.66,270.98L196.66,270.98z"/>
<path class="st0" d="M270.98,90.03H12.48c-7.11,0-12.93-5.82-12.93-12.93s5.82-12.93,12.93-12.93h258.5
	c7.11,0,12.93,5.82,12.93,12.93S278.09,90.03,270.98,90.03L270.98,90.03z M219.28,38.33H64.18c-7.11,0-12.93-5.82-12.93-12.93
	s5.82-12.93,12.93-12.93h155.1c7.11,0,12.93,5.82,12.93,12.93S226.39,38.33,219.28,38.33z"/>
<path class="st1" d="M167.58,206.36c-7.11,0-12.93-5.82-12.93-12.93v-77.55c0-7.11,5.82-12.93,12.93-12.93s12.93,5.82,12.93,12.93
	v77.55C180.51,200.54,174.69,206.36,167.58,206.36z M115.88,206.36c-7.11,0-12.93-5.82-12.93-12.93v-77.55
	c0-7.11,5.82-12.93,12.93-12.93c7.11,0,12.93,5.82,12.93,12.93v77.55C128.81,200.54,122.99,206.36,115.88,206.36z"/>
</svg>
