<?xml version="1.0" encoding="utf-8"?>
<!-- Generator: Adobe Illustrator 23.0.3, SVG Export Plug-In . SVG Version: 6.00 Build 0)  -->
<svg version="1.1" id="图层_1" xmlns="http://www.w3.org/2000/svg" xmlns:xlink="http://www.w3.org/1999/xlink" x="0px" y="0px"
	 viewBox="0 0 283.46 283.46" style="enable-background:new 0 0 283.46 283.46;" xml:space="preserve">
<style type="text/css">
	.st0{fill:#CDCDCD;}
	.st1{fill:#F35612;}
	.st2{fill:#313232;}
	.st3{fill:#323232;}
	.st4{fill:none;}
</style>
<circle class="st1" cx="141.92" cy="141.73" r="131.61"/>
<path class="st3" d="M141.73,23c31.71,0,61.53,12.35,83.96,34.78c22.43,22.43,34.78,52.24,34.78,83.96s-12.35,61.53-34.78,83.96
	c-22.43,22.43-52.24,34.78-83.96,34.78s-61.53-12.35-83.96-34.78C35.35,203.26,23,173.45,23,141.73S35.35,80.2,57.78,57.78
	C80.2,35.35,110.02,23,141.73,23 M141.73,0C63.46,0,0,63.46,0,141.73s63.46,141.73,141.73,141.73s141.73-63.46,141.73-141.73
	S220.01,0,141.73,0L141.73,0z"/>
<path class="st3" d="M201.26,182.36c5.67,5.67,5.67,13.23,0,18.9c-5.67,5.67-13.23,5.67-18.9,0l-39.69-39.69l-41.57,41.57
	c-5.67,5.67-15.12,5.67-20.79,0c-5.67-5.67-5.67-15.12,0-20.79l41.57-41.57L82.2,101.1c-5.67-5.67-5.67-13.23,0-18.9
	c5.67-5.67,13.23-5.67,18.9,0l39.69,39.69l41.57-41.57c5.67-5.67,15.12-5.67,20.79,0c5.67,5.67,5.67,15.12,0,20.79l-41.57,41.57
	L201.26,182.36L201.26,182.36z"/>
</svg>
