<?xml version="1.0" encoding="utf-8"?>
<!-- Generator: Adobe Illustrator 23.0.3, SVG Export Plug-In . SVG Version: 6.00 Build 0)  -->
<svg version="1.1" id="图层_1" xmlns="http://www.w3.org/2000/svg" xmlns:xlink="http://www.w3.org/1999/xlink" x="0px" y="0px"
	 viewBox="0 0 283.46 283.46" style="enable-background:new 0 0 283.46 283.46;" xml:space="preserve">
<style type="text/css">
	.st0{fill:#CDCDCD;}
	.st1{fill:#C0392B;}
	.st2{fill:#313232;}
	.st3{fill:#323232;}
	.st4{fill:none;}
</style>
<path class="st1" d="M149.24,120.79c-4.47-2.6-9.64-4.11-15.2-4.11c-16.65,0-30.14,13.49-30.14,30.14s13.49,30.14,30.14,30.14
	s30.14-13.49,30.14-30.14c0-4.76-1.12-9.29-3.08-13.31l67.08-67.08l9.2,7.75l34.69-32.71l-25.82-2.78l-3.34-24.67l-34.72,32.71
	l7.66,7.39L149.24,120.79z"/>
<path class="st0" d="M219.58,85.66c12.39,17.24,19.7,38.39,19.7,61.19c0,58.03-47.2,105.23-105.23,105.23S28.78,204.88,28.78,146.85
	S76.01,41.59,134.04,41.59c22.69,0,43.68,7.25,60.9,19.49l12.45-12.45c-20.47-15.32-45.87-24.43-73.35-24.43
	c-67.61,0-122.65,55.01-122.65,122.62S66.4,269.44,134.04,269.44s122.62-55.01,122.62-122.62c0-27.62-9.17-53.12-24.64-73.65
	L219.58,85.66z"/>
<path class="st0" d="M134.04,87.16c10.06,0,19.55,2.51,27.86,6.95l12.75-12.75c-11.8-7.33-25.7-11.59-40.61-11.59
	c-42.5,0-77.08,34.57-77.08,77.08s34.57,77.08,77.08,77.08s77.08-34.57,77.08-77.08c0-15.02-4.35-29.04-11.8-40.9l-12.72,12.72
	c4.53,8.4,7.1,18.01,7.1,28.19c0,32.89-26.77,59.66-59.66,59.66s-59.66-26.77-59.66-59.66C74.36,113.93,101.12,87.16,134.04,87.16z"
	/>
</svg>
