<?xml version="1.0" encoding="utf-8"?>
<!-- Generator: Adobe Illustrator 23.0.3, SVG Export Plug-In . SVG Version: 6.00 Build 0)  -->
<svg version="1.1" id="图层_1" xmlns="http://www.w3.org/2000/svg" xmlns:xlink="http://www.w3.org/1999/xlink" x="0px" y="0px"
	 viewBox="0 0 283.46 283.46" style="enable-background:new 0 0 283.46 283.46;" xml:space="preserve">
<style type="text/css">
	.st0{fill:#CDCDCD;}
	.st1{fill:#5CB85C;}
	.st2{fill:#313232;}
	.st3{fill:#323232;}
	.st4{fill:none;}
</style>
<path class="st0" d="M139.17,131.3c0.01-0.02,0.03-0.04,0.05-0.06c-0.05-0.26-0.1-0.48-0.12-0.64
	C139.12,130.83,139.15,131.07,139.17,131.3L139.17,131.3z M188.93,185.71C188.93,185.71,188.93,185.71,188.93,185.71
	c0-0.01-0.03-0.01-0.03-0.01C188.9,185.71,188.92,185.71,188.93,185.71L188.93,185.71z M190.2,185.87c-0.31-0.05-1,0.04-1.27-0.16
	C188.76,186.3,189.02,186.52,190.2,185.87L190.2,185.87z M141.73,23.59c-71.56,0-129.56,58.09-129.56,129.75
	c0,71.66,58.01,129.75,129.56,129.75c71.56,0,129.56-58.09,129.56-129.75C271.3,81.68,213.29,23.59,141.73,23.59L141.73,23.59z
	 M224.49,74.27c-4.46,0.14-7.57,0.14-11.16,2.62c-1.45,1-2.43,2.33-4.26,2.84c-1.64,0.46-3.42,0.06-5.05,0.61
	c-5.89,2-4.95,14.63-12.71,12.72c-3.64-0.9-6.21-5.21-8.05-8.02c-1.62-2.48-4.56-4.53-2.57-7.63c-0.91,0.23-1.87-0.03-2.77,0.14
	c1.24-2.73,5.41-2.49,6.1-3.89c1.73-3.5-4.75-3.87-6.59-4.35c2.21-2.36,3.33,0.79,5.52,0.26c2.1-0.52-1.11-3.28-2.37-3.6
	c-0.45-0.11-7.84,2.04-3.56-1.79c-5.28-3.37-10.56-6.74-15.84-10.11c-0.89,3.75,7.03,5.88,9.61,7.2c-0.4,1.55-2.81,3.8-4.65,3.14
	c-1.73-0.62-1.03-3.5-3.65-3.21c-1.87,4.35,3.95,3.08,4.49,5.75c0.61,3.04-2.2,1.75-3.28,1.7c-0.26-0.01-2.28-2.11-2.39-0.52
	c-0.13,1.88,3.22,1.15,3.46,3.05c-3.9,0.16-5.9-1.25-9.07-3.37c-3.71-2.46-5.61-2.24-10.15-2.24c1.36-0.56,3.23-0.97,4.39-1.87
	c0.63-0.49,3.12-2.92,3.29-3.46c0.7-2.33-0.04-2.16-2.27-3.69c-1.98-1.36-4.39-3.8-6.79-4.28c-8.71-1.74-2.69,7.87-9.29,9.2
	c0.11,0.01,0.24,0.01,0.33,0.01h-0.38c0.02,0,0.03-0.01,0.05-0.01c-1.53-0.05-4.39-0.43-5.38,0.38c-0.7,0.57-0.75,2.85-1.53,3.68
	c-1.38,1.48-3.45,1.77-5.1,2.84c-1.61,1.04-5.16,3.71-6.11,5.52c-3.49,6.67,7.86,8.74,12.16,10.69c1.94,0.88,7.62,2.09,8.68,3.56
	c1.42,1.98-1.22,3.83,1.74,5.22c0.95,0.44,2.9,0.53,3.71-0.38c1.32-1.49-0.54-1.83-0.86-3.56c-0.61-3.32,0.4-2,2.07-3.24
	c3.4-2.51,2.64-2.67,1.41-6.68c-0.57-1.87-2.71-7.07-0.83-8.45c2.46-1.8,7.7,0.97,9.59,1.21c2.19,0.27,3.44,3.31,4.64,4.56
	c0.79,0.83,2.21,2.58,3.6,2.39c2.2-0.3,1.28-2.23,2.56-3.12c3.43-2.38,4.33,0.85,5.7,4.09c1.28,3.04,2.5,4.16,4.79,6.11
	c1.06,0.91,5.72,4.14,5.28,6.14c-0.3,1.34-5.61,3.38-7.04,3.83c-5.2,1.65-14.95-2.7-15.99,5.55c2.02-0.75,7.75-5.44,9.47-3.22
	c0.78,1.01-0.62,2.48-0.29,3.48c0.98,3,3.3,1.96,5.72,1.47c-0.17,0.1-0.33,0.19-0.51,0.27c3.32-1.71,2.97-1.35,4.49-4.12
	c0.5-0.9,1.24-3.09,1.94-3.74c2.41-2.22,2.78-0.69,4.27,1.02c0.39,0.45,4.08,5.77,2.77,5.51c-4.29-0.86-8.42-0.75-11.98,1.6
	c-2.05,1.36-3.99,3.19-6.44,4.09c-0.59,0.21-4.94,0.63-4.42-0.12c0.75-1.08,3.33-1.8,4.35-2.97c-2.82-1.16-5.18,1.41-7.4,2.91
	c-2.36,1.12-2.9,3.2-4.91,5.02c-0.88,0.79-2.53,0.93-3.39,1.98c-0.83,1.02-0.94,2.61-1.73,3.58c-0.55,0.67-1.97,0.27-2.55,1.28
	c-0.75,1.33,0.69,2.56,0.37,3.52c-0.58,1.74-3.88,3.21-5.15,4.47c0.17-0.16,0.34-0.33,0.5-0.5c-1.27,1.34-2.88,2.32-3.88,3.87
	c0.46,2.19,1.9,7.4,1.49,8.6c-1.32,3.94-3.9-2.15-4.94-3.72c-3.58-5.41-10.75-1.79-15.64-1.34c-6.26,0.57-12.39,8.71-8.53,15.31
	c1.85,3.17,4.97,4.39,8.54,3.66c3.18-0.65,4.14-5.11,7.13-5.19c5.51-0.15,0.12,5.4-0.36,7.44c-0.44,1.89,0.69,2.06,2.63,2.53
	c1.43,0.34,3.46-0.61,4.7,0.21c0.78,0.52,0.74,3.35,1.82,2.46c-2.12,1.76-1.62,5.93,0.55,7.43c2.41,1.67,5.24,0.12,7.76,0.77
	c4.76,1.22,2.49-0.36,6.67-2.89c2.82-1.7,3.28,0.32,5.21,0.33c1.31,0.01,2.15-1.89,4.34-1.34c1.79,0.45,2.49,1.83,4.63,2.15
	c0.88,0.13,1.78-0.33,2.61-0.24c3.95,0.44,6.97,2.97,10.08,5.25c2.56,1.88,4.26,1.5,7.26,2.36c2.19,0.62,6.23,3.8,6.02,6.58
	c-0.04,0.5-1.95,3-2.28,4.13c0.56,0.39,4.45-0.48,5.59-0.57c-0.37,0.44-3.03,2.3-3.03,1.31c0,0.51,1.88,1.55,2.33,1.87
	c1.38-4.5,3.66-1.6,6.39-0.49c2.32,0.95,5.19,1,7.67,1.59c2.1,0.5,6.75,1.93,8.31,3.65c1.88,2.07,0.58,5.44-0.81,7.51
	c-1.82,2.7-4.56,3.74-5.69,6.93c-0.9,2.52-0.22,5.07-0.74,7.86c-0.69,3.78-1.25,2.46-3.68,4.77c-2.05,1.94-0.03,1.61-2.82,2.85
	c-2.8,1.25-5.27,0.88-7.2,3.95c0.08-0.19,0.14-0.39,0.19-0.59c-0.82,1.15-1.23,3.49-1.61,4.26c-0.98,1.97-2.33,3.21-3.87,4.84
	c-0.59,0.63-6.04,8.08-6.35,7.48c-0.4-0.78-4.7,0.78-4.9-0.33c0.17,0.93-0.04,0.62,1.03,1.16c-0.99,6.12-3.57,7.04-9.58,7.1
	c0.52,2.94-2.18,2.36-3.43,3.94c-0.73,0.92-1.08,3.52-1.59,4.72c-0.32,0.75-2.66,3.76-2.66,4.36c0,0.55,0.79,1.35,1.53,2.13
	c-4.23,0.84-8.55,1.42-12.93,1.78c0.82-1.04,1.02-1.95-1.6-2.07c0.7-1.9,2.34-2.99,3.04-4.83c0.33-0.87,0.06-1.21,0.34-2.08
	c0.96-2.98,0.54-1.85,0-4.16c-1.26-5.42,0.45-6.9,1.92-11.86c1.51-5.1,1.37-11.7,2.34-17.19c0.46-2.63,1.21-8.09,0.3-10.58
	c-1.03-2.8-5.54-5-7.61-6.88c-2.93-2.67-4.48-5.56-6.66-8.86c-1.1-1.68-2.36-3.32-3.22-5.15c-1.84-3.9,0-1.58,0.31-3.88
	c0.3-2.22-0.26-4.21,0.62-6.54c0.98-2.58,3.41-4.19,4.21-6.79c0.72-2.32,0.17-5.23-2.2-6c-1.32-0.43-2.78,0.56-4.12,0.35
	c-1.85-0.3-3.96-1.69-5.41-2.8c-2.03-1.55-2.79-4.07-4.96-5.54c-1.81-1.23-3.1-0.49-5.04-1.07c-2.02-0.6-3.27-3.09-4.9-3.88
	c-2.45-1.17-3.83,0.51-6.41,0.17c-2.2-0.29-5.55-2.73-7.6-3.65c-4.17-1.87-6.72-3.94-8.38-8.18c-1.43-3.64-3.51-5.33-5.97-8.36
	c-2.49-3.07-3.26-5.69-7.1-6.5c-0.45-0.1,0.94,3.22,1.08,3.49c1.37,2.54,3.43,4.86,5.08,7.22c2.43,3.48,1.4,4.14-1.08,0.77
	c-2.83-3.85-6.11-7.68-8.57-11.76c-0.93-1.54-0.75-2.54-2.28-4c-1.48-1.41-3.42-2.1-4.9-3.45c-5.36-4.83-6.33-11.27-5.72-18.15
	c0.2-2.24,1.01-4.04,0.65-6.19c-0.29-1.79-1.35-3.27-2.67-4.59c-0.42-0.68-1.49-2.35-1.55-2.45c-1.22-2.02-2.16-4.01-4.1-5.67
	c-1.11-0.96-3.98-3.19-6.68-5.07c12.14-15.16,28.02-27.17,46.24-34.63c0.14,0.92,0.54,1.83,1.13,2.71c1.5,2.22,2.93,2.05,5.85,2.66
	c-0.31,3.4-4.28,3.43-6.97,3.06c-3.21-0.44-6.58-1.51-9.35,1.31c1.53,0.92,5.74,4.52,5.18,0.76c3.07-0.15,6.04-0.25,9.04,0.12
	c1.2,0.15,5.24,1.5,6.33,0.89c0.46-0.26,0.95-2.53,1.43-3.22c-0.86,0-1.77-0.43-2.63-0.35c1.99-2.55,3.97-0.55,6.5,0.62
	c-2.79,1.7-1.13,5.76,1.59,2.46c2.24-2.72-0.55-4.69-3.39-6.27c2.87-3.59,4.63-3.91,7.33,0.14c0.44-2.5,2.46-1.5,4.56-1.31v-0.63
	c-0.93,0.02-1.92-0.51-2.83-0.42c2.14-3.43,0.78-4.21,3.84-5.33c2.44-0.89,9.4-0.06,10.26-2.36c-4.87,0.95-10.76,1.18-15.16,3.4
	c-1.9,0.96-4.15,3.98-6.05,2.01c-1.94-2.01,1.39-5.25,3.09-6.24h-0.41c7.71-1.64,15.7-2.52,23.89-2.52c5.29,0,10.5,0.39,15.6,1.09
	c-1.77,0.93-0.46,1.56-1.75,2.51c-2.46,1.81-6.82,3.32-9.75,4.47c3.72-0.01,12.72,3.49,14.45-1.73c-1.2-0.18-2.4-0.37-3.6-0.55
	c2.24-1.49,4.74-2.69,7.36-3.58c23.68,4.7,44.74,16.73,60.77,33.6C224.71,74.27,224.6,74.27,224.49,74.27L224.49,74.27z
	 M245.46,119.83c0.21-0.46,0.71-0.61,0.92-0.98c0.43-0.79,0.34-1.33,0.87-2.01c0.57-0.73,1.34-0.91,1.98-1.49
	c0.26-0.23,0.4-0.44,0.52-0.66c1.91,5.34,3.43,10.86,4.54,16.53c-0.03,0.04-0.05,0.1-0.09,0.14c-0.28,0.22-2.09,0.49-2.47,0.5
	c-1.32,0.05-2.29-0.82-3.24-1.65c-0.96-0.84-2.09-1.95-2.77-3.03c-0.73-1.16-0.28-2.34-0.23-3.66
	C245.53,122.41,244.99,120.83,245.46,119.83L245.46,119.83z M246.94,179.32c-2.23-1.94-4.85-4.53-6.43-7.04
	c-1.69-2.67-0.65-5.43-0.52-8.49c0.1-2.58-1.15-6.24-0.06-8.56c0.5-1.06,1.65-1.41,2.13-2.28c1.01-1.84,0.78-3.08,2.02-4.66
	c1.32-1.7,3.11-2.11,4.58-3.44c1.55-1.39,1.5-2.49,2.48-4.28c0.72-1.31,2.4-3.49,3.99-4.63c0.86,5.67,1.32,11.48,1.32,17.39
	c0,10.22-1.36,20.13-3.87,29.58C250.42,182.36,248.65,180.81,246.94,179.32L246.94,179.32z"/>
<path class="st1" d="M220.7,1.05c5.68,0,11.01,1.08,16,3.23c4.99,2.15,9.32,5.06,12.98,8.72c3.75,3.76,6.71,8.1,8.86,13.05
	c2.15,4.95,3.23,10.26,3.23,15.93c0,7.69-2.15,16-6.46,24.93c-4.31,8.93-9.02,17.19-14.15,24.79c-5.13,7.6-11.95,16.44-20.47,26.51
	c-8.52-10.07-15.34-18.91-20.47-26.51c-5.13-7.6-9.84-15.86-14.15-24.79c-4.31-8.93-6.46-17.24-6.46-24.93
	c0-5.68,1.08-10.99,3.23-15.93c2.15-4.95,5.1-9.29,8.86-13.05c3.66-3.66,7.99-6.57,12.98-8.72C209.69,2.13,215.02,1.05,220.7,1.05
	L220.7,1.05z M220.7,56.68c2.01,0,3.91-0.39,5.7-1.17c1.79-0.78,3.32-1.81,4.6-3.09c1.37-1.37,2.45-2.95,3.23-4.74
	c0.78-1.79,1.17-3.68,1.17-5.7c0-2.01-0.39-3.91-1.17-5.7c-0.78-1.79-1.85-3.32-3.23-4.6c-1.28-1.37-2.82-2.43-4.6-3.16
	c-1.79-0.73-3.69-1.1-5.7-1.1c-2.01,0-3.91,0.37-5.7,1.1c-1.79,0.73-3.32,1.79-4.6,3.16c-1.37,1.28-2.45,2.82-3.23,4.6
	c-0.78,1.79-1.17,3.69-1.17,5.7c0,2.02,0.39,3.91,1.17,5.7c0.78,1.79,1.85,3.37,3.23,4.74c1.28,1.28,2.82,2.31,4.6,3.09
	C216.79,56.29,218.69,56.68,220.7,56.68L220.7,56.68z"/>
</svg>
