<?xml version="1.0" encoding="utf-8"?>
<!-- Generator: Adobe Illustrator 23.0.3, SVG Export Plug-In . SVG Version: 6.00 Build 0)  -->
<svg version="1.1" id="图层_1" xmlns="http://www.w3.org/2000/svg" xmlns:xlink="http://www.w3.org/1999/xlink" x="0px" y="0px"
	 viewBox="0 0 283.46 283.46" style="enable-background:new 0 0 283.46 283.46;" xml:space="preserve">
<style type="text/css">
	.st0{fill:#CDCDCD;}
	.st1{fill:#F35612;}
	.st2{fill:#313232;}
	.st3{fill:#323232;}
	.st4{fill:none;}
</style>
<path class="st1" d="M79.07,157.38c34.6,34.62,90.71,34.64,125.33,0.04s34.64-90.71,0.04-125.33c-0.01-0.01-0.03-0.03-0.04-0.04
	C169.8-2.58,113.69-2.6,79.07,32s-34.64,90.71-0.04,125.33C79.04,157.35,79.05,157.36,79.07,157.38z"/>
<path class="st3" d="M141.71,19.07c20.21,0,39.21,7.87,53.47,22.15l0.06,0.06c29.48,29.49,29.46,77.47-0.03,106.95
	c-14.28,14.27-33.27,22.13-53.46,22.13c-20.21,0-39.21-7.87-53.47-22.15l-0.06-0.06C58.75,118.65,58.76,70.67,88.26,41.2
	C102.54,26.93,121.52,19.07,141.71,19.07 M141.71,6.07c-22.67,0-45.34,8.64-62.65,25.94c-34.62,34.6-34.64,90.71-0.04,125.33
	c0.01,0.01,0.03,0.03,0.04,0.04c17.31,17.32,40,25.98,62.69,25.98c22.67,0,45.34-8.64,62.65-25.94
	c34.62-34.6,34.64-90.71,0.04-125.33c-0.01-0.01-0.03-0.03-0.04-0.04C187.09,14.73,164.4,6.07,141.71,6.07L141.71,6.07z"/>
<path class="st3" d="M208.36,147.74c-1.7,1.99-3.27,3.71-4.81,5.25c-1.88,1.88-3.87,3.69-6.09,5.53l-0.43,0.36v98.67h-0.5v1.2
	c0,2.57-2.09,4.66-4.68,4.66c-0.78,0.01-1.57-0.23-2.28-0.74l-37.07-22.93c-5.93-3.74-13.59-3.74-19.51-0.01L94.72,263
	c-2.03,1.31-4.74,0.72-6.05-1.31c-0.07-0.11-0.13-0.22-0.24-0.42c-0.44-0.7-0.7-1.51-0.74-2.29v-99.15l-0.45-0.36
	c-2.62-2.1-5.09-4.3-7.37-6.58c-1.53-1.53-3.09-3.23-4.77-5.21l-2.11-2.48v113.86c-0.02,3.48,0.98,6.86,2.86,9.76
	c3.54,5.75,9.75,8.93,16.09,8.93c3.3,0,6.64-0.86,9.66-2.68l38.26-23.27c1.52-0.95,3.41-0.95,4.93,0l37.06,22.92
	c2.9,1.88,6.25,2.87,9.7,2.87c0.03,0,0.05,0,0.08,0c10.36-0.03,18.82-8.49,18.86-18.86V145.26L208.36,147.74z"/>
<path class="st3" d="M142.2,45.77l16.3,30.71l32.59,6.73l-23.03,25.86l3.91,34.61l-29.76-15.35l-30.71,15.35l3.91-34.61L92.37,83.21
	l32.59-6.73L142.2,45.77"/>
</svg>
