<?xml version="1.0" encoding="utf-8"?>
<!-- Generator: Adobe Illustrator 23.0.3, SVG Export Plug-In . SVG Version: 6.00 Build 0)  -->
<svg version="1.1" id="图层_1" xmlns="http://www.w3.org/2000/svg" xmlns:xlink="http://www.w3.org/1999/xlink" x="0px" y="0px"
	 viewBox="0 0 283.46 283.46" style="enable-background:new 0 0 283.46 283.46;" xml:space="preserve">
<style type="text/css">
	.st0{fill:#CDCDCD;}
	.st1{fill:#5CB85C;}
	.st2{fill:#313232;}
	.st3{fill:#323232;}
	.st4{fill:none;}
</style>
<path class="st3" d="M240.76,260.31h-9.03c-1.59-32.88-9.03-57.65-19.82-76.23l-0.14-0.38c-11.3-19.43-26.3-32.12-42.04-39.87
	c15.75-7.86,30.74-20.4,42.04-39.84l0.14-0.35c11.16-19.36,18.82-45.52,19.99-80.53h8.86c6.03,0,10.78-4.72,10.78-10.72
	c0-5.93-4.75-10.68-10.78-10.68H42.71c-5.96,0-10.79,4.76-10.79,10.68c0,5.99,4.83,10.72,10.79,10.72h8.89
	c1.28,35.01,8.79,61.17,19.95,80.53l0.21,0.35c11.34,19.43,26.26,31.98,42.08,39.84c-15.82,7.75-30.74,20.43-42.08,39.87l-0.21,0.38
	c-10.72,18.57-18.12,43.35-19.75,76.23h-9.1c-5.96,0-10.79,4.76-10.79,10.55c0,6.13,4.83,10.89,10.79,10.89h198.05
	c6.03,0,10.78-4.76,10.78-10.89C251.54,265.07,246.79,260.31,240.76,260.31L240.76,260.31z M69.69,223.92
	c3.24-13.16,7.65-24.16,13.03-33.32l0.14-0.48c12.99-22.33,31.49-34.26,50.31-40.08l0.76-0.45h0.17c0.38-0.14,0.76-0.31,1.07-0.58
	l0.14-0.17l0.48-0.31l0.07-0.14l0.45-0.48l0.07-0.14c0.31-0.31,0.48-0.69,0.79-1.07v-0.17c0.28-0.45,0.45-0.97,0.45-1.51l0.07-0.14
	v-0.48l0.07-0.38v-0.31l-0.07-0.38V143l-0.07-0.27c0-0.55-0.17-1.1-0.45-1.55v-0.14c-0.31-0.49-0.48-0.8-0.79-1.07l-0.07-0.24
	l-0.45-0.38h-0.07l-0.48-0.45l-0.14-0.17c-0.31-0.21-0.69-0.45-1.07-0.69l-0.17-0.07l-0.76-0.31
	c-18.82-5.65-37.32-17.75-50.31-40.22l-0.14-0.17c-10.1-17.64-16.99-41.73-18.23-74.16h154.49c-1.07,32.43-7.96,56.52-18.19,74.16
	l-0.17,0.17c-12.93,22.47-31.5,34.57-50.14,40.22l-0.93,0.31l-0.17,0.07c-0.38,0.24-0.69,0.49-1.07,0.69l-0.14,0.17l-0.45,0.45
	l-0.55,0.38l-0.07,0.24c-0.24,0.27-0.48,0.58-0.62,1.07l-0.14,0.14c-0.17,0.45-0.31,1-0.48,1.55v2.28c0.17,0.55,0.31,1.07,0.48,1.51
	l0.14,0.17c0.14,0.38,0.38,0.76,0.62,1.07l0.07,0.14l0.55,0.48v0.14l0.45,0.31l0.14,0.17c0.31,0.27,0.69,0.45,1.07,0.58h0.17
	l0.93,0.45c18.64,5.82,37.22,17.75,50.14,40.08l0.17,0.48c5.41,9.17,9.79,34.15,12.99,47.14c-7.34-9.65-16.23-17.44-26.15-23.16
	c-14.06-8.03-29.98-12.16-45.97-12.16c-15.82,0-31.74,4.13-45.87,12.23c-9.72,5.65-17.79,10.85-26.41,19.23l-2.25,3.86L69.69,223.92
	L69.69,223.92z M66.04,261.6c9.35-21.49,19.89-26.3,36.22-35.78c12.03-7.03,25.71-10.55,39.39-10.55c13.85,0,27.46,3.52,39.56,10.55
	c16.33,9.48,20.84,12.71,36.22,34.49L66.04,261.6z"/>
<path class="st1" d="M66.04,261.6c9.35-21.49,19.89-26.3,36.22-35.78c12.03-7.03,25.71-10.55,39.39-10.55
	c13.85,0,27.46,3.52,39.56,10.55c16.33,9.48,20.84,12.71,36.22,34.49L66.04,261.6z"/>
</svg>
