<?xml version="1.0" encoding="utf-8"?>
<!-- Generator: Adobe Illustrator 23.0.3, SVG Export Plug-In . SVG Version: 6.00 Build 0)  -->
<svg version="1.1" id="图层_1" xmlns="http://www.w3.org/2000/svg" xmlns:xlink="http://www.w3.org/1999/xlink" x="0px" y="0px"
	 viewBox="0 0 283.46 283.46" style="enable-background:new 0 0 283.46 283.46;" xml:space="preserve">
<style type="text/css">
	.st0{fill:#CDCDCD;}
	.st1{fill:#5CB85C;}
	.st2{fill:#313232;}
	.st3{fill:#323232;}
	.st4{fill:none;}
</style>
<g>
	<path class="st2" d="M136.33,185.43c4.39-4.24,7.11-10.17,7.11-16.75v-6.2c0-12.85-10.42-23.27-23.27-23.27
		s-23.27,10.42-23.27,23.27v6.2c-0.01,6.32,2.56,12.37,7.11,16.75c-19.15,6.84-31.94,24.98-31.94,45.32c0,6,4.86,10.86,10.86,10.86
		h74.48c6,0,10.86-4.86,10.86-10.86C168.27,210.41,155.48,192.27,136.33,185.43z M106.2,162.48c0-7.71,6.25-13.96,13.96-13.96
		c7.71,0,13.96,6.25,13.96,13.96v6.2c0,7.71-6.25,13.96-13.96,13.96s-13.96-6.25-13.96-13.96V162.48z M157.41,232.3H82.93
		c-0.86,0-1.55-0.69-1.55-1.55c0,0,0,0,0-0.01c0-21.42,17.37-38.79,38.79-38.79c0,0,0,0,0.01,0c21.42,0,38.79,17.37,38.78,38.8
		C158.95,231.61,158.26,232.3,157.41,232.3z"/>
	<path class="st2" d="M237.4,11.8H60.96c-18.74,0-33.93,15.19-33.93,33.93v23.81H14.97c-1.56,0-2.83,1.28-2.83,2.83v18.97
		c0,1.56,1.28,2.83,2.83,2.83h12.06v18.65H14.97c-1.56,0-2.83,1.28-2.83,2.83v18.97c0,1.56,1.28,2.83,2.83,2.83h12.06v18.65H14.97
		c-1.56,0-2.83,1.28-2.83,2.83v18.97c0,1.56,1.28,2.83,2.83,2.83h12.06v18.65H14.97c-1.56,0-2.83,1.28-2.83,2.83v18.97
		c0,1.56,1.28,2.83,2.83,2.83h12.06v23.81c0,18.74,15.19,33.93,33.93,33.93H237.4c18.74,0,33.93-15.19,33.93-33.93V45.73
		C271.33,26.99,256.14,11.8,237.4,11.8z M254.58,247.84c0,9.47-7.7,17.17-17.17,17.17H60.96c-9.47,0-17.17-7.7-17.17-17.17v-23.81
		h13.99c1.56,0,2.83-1.28,2.83-2.83v-18.97c0-1.56-1.28-2.83-2.83-2.83H43.78v-18.65h13.99c1.56,0,2.83-1.28,2.83-2.83v-18.97
		c0-1.56-1.28-2.83-2.83-2.83H43.78v-18.65h13.99c1.56,0,2.83-1.28,2.83-2.83v-18.97c0-1.56-1.28-2.83-2.83-2.83H43.78V94.17h13.99
		c1.56,0,2.83-1.28,2.83-2.83V72.37c0-1.56-1.28-2.83-2.83-2.83H43.78V45.73c0-9.47,7.7-17.17,17.17-17.17h125.98
		c0.36-0.34,0.72-0.69,1.12-1.01c3.78-3.02,8.45-4.53,14.03-4.53c6.97,0,12.49,1.71,16.55,5.14c0.15,0.13,0.28,0.27,0.43,0.4h18.35
		c9.47,0,17.17,7.7,17.17,17.17V247.84z"/>
</g>
<path class="st1" d="M222.92,1.69h-40.3c-7.9,0-14.36,6.46-14.36,14.36v104.11l34.51-16.6l34.51,16.6V16.05
	C237.29,8.15,230.82,1.69,222.92,1.69z"/>
<g>
	<rect x="196.68" y="74.07" class="st2" width="12.72" height="12.28"/>
	<path class="st2" d="M218.63,28.16c-4.07-3.43-9.58-5.14-16.55-5.14c-5.58,0-10.25,1.51-14.03,4.53
		c-4.59,3.66-6.88,8.94-6.88,15.85l12.28-0.09c0.41-3.72,1.41-6.32,3.01-7.8c1.6-1.48,3.73-2.22,6.4-2.22
		c2.32,0,4.21,0.58,5.66,1.74c1.86,1.45,2.79,3.75,2.79,6.88c0,3.25-1.8,6.13-5.4,8.62c-3.83,2.73-6.33,5.34-7.49,7.84
		c-0.93,2.03-1.39,5.31-1.39,9.84h11.5c0-2.9,0.43-5.14,1.31-6.71c0.64-1.16,1.97-2.47,4.01-3.92c3.72-2.67,6.33-5.05,7.84-7.14
		c1.8-2.56,2.7-5.52,2.7-8.89C224.38,35.82,222.46,31.35,218.63,28.16z"/>
</g>
</svg>
