<svg xmlns="http://www.w3.org/2000/svg" viewBox="0 0 283.46 283.46"><title>蓝</title><ellipse cx="82.9" cy="215.59" rx="50.4" ry="47.77" fill="#3498db"/><path d="M82.9,182.46c19.72,0,35.76,14.86,35.76,33.13s-16,33.14-35.76,33.14-35.77-14.87-35.77-33.14,16-33.13,35.77-33.13m0-14.64c-27.83,0-50.4,21.39-50.4,47.77s22.57,47.77,50.4,47.77,50.4-21.38,50.4-47.77-22.57-47.77-50.4-47.77Z" fill="#323232"/><ellipse cx="200.57" cy="215.59" rx="50.4" ry="47.77" fill="#3498db"/><path d="M200.57,182.46c19.72,0,35.76,14.86,35.76,33.13s-16,33.14-35.76,33.14-35.77-14.87-35.77-33.14,16-33.13,35.77-33.13m0-14.64c-27.84,0-50.4,21.39-50.4,47.77s22.56,47.77,50.4,47.77S251,242,251,215.59s-22.56-47.77-50.39-47.77Z" fill="#323232"/><path d="M161.31,216.73h-9a6.86,6.86,0,0,0-2.9-5.85,13.1,13.1,0,0,0-7.68-2.26c-3.92,0-10.57,1.71-10.57,8.11h-9c0-11.23,9.85-17.11,19.57-17.11S161.31,205.5,161.31,216.73Z" fill="#323232"/><path d="M43.09,221.06H24.52a8,8,0,0,1-7.83-9.38L43.42,65.83A24.13,24.13,0,0,1,49,54.3L77.29,22a5.5,5.5,0,0,1,7.76-.52h0a5.51,5.51,0,0,1,.52,7.77l-26.3,30A24.07,24.07,0,0,0,53.7,70.8L28.17,210.06H43.09Z" fill="#323232"/><path d="M259,221.06H240.37v-11h14.92L229.77,70.8a24.09,24.09,0,0,0-5.58-11.53l-26.3-30a5.51,5.51,0,0,1,.52-7.77h0a5.5,5.5,0,0,1,7.76.52l28.3,32.32A24.11,24.11,0,0,1,240,65.83l26.73,145.85A7.94,7.94,0,0,1,259,221.06Z" fill="#323232"/></svg>