<?xml version="1.0" encoding="utf-8"?>
<!-- Generator: Adobe Illustrator 23.0.3, SVG Export Plug-In . SVG Version: 6.00 Build 0)  -->
<svg version="1.1" id="图层_1" xmlns="http://www.w3.org/2000/svg" xmlns:xlink="http://www.w3.org/1999/xlink" x="0px" y="0px"
	 viewBox="0 0 283.46 283.46" style="enable-background:new 0 0 283.46 283.46;" xml:space="preserve">
<style type="text/css">
	.st0{fill:#CDCDCD;}
	.st1{fill:#3498DB;}
	.st2{fill:#313232;}
	.st3{fill:#323232;}
	.st4{fill:none;}
</style>
<g>
	<path class="st1" d="M91.93,85.35v9.68h5.37v7.14h-5.37v9.02c0,1.08,0.1,1.8,0.31,2.15c0.32,0.54,0.88,0.81,1.68,0.81
		c0.72,0,1.73-0.21,3.02-0.62l0.72,6.73c-2.41,0.53-4.67,0.79-6.76,0.79c-2.43,0-4.22-0.31-5.37-0.93c-1.15-0.62-2-1.57-2.55-2.84
		s-0.83-3.32-0.83-6.16v-8.95h-3.59v-7.14h3.59v-4.67L91.93,85.35z"/>
	<path class="st1" d="M110.84,103.27l-9.32-0.98c0.35-1.63,0.86-2.91,1.52-3.85s1.62-1.75,2.86-2.43c0.89-0.49,2.12-0.88,3.69-1.15
		s3.26-0.41,5.08-0.41c2.92,0,5.27,0.16,7.04,0.49c1.77,0.33,3.25,1.01,4.43,2.05c0.83,0.72,1.49,1.74,1.96,3.06
		s0.72,2.58,0.72,3.77v11.24c0,1.2,0.08,2.14,0.23,2.82c0.15,0.68,0.48,1.55,0.99,2.6h-9.15c-0.37-0.65-0.61-1.15-0.72-1.5
		c-0.11-0.34-0.22-0.88-0.33-1.62c-1.28,1.23-2.55,2.11-3.81,2.64c-1.73,0.7-3.73,1.05-6.01,1.05c-3.04,0-5.34-0.7-6.91-2.11
		c-1.57-1.41-2.36-3.14-2.36-5.2c0-1.93,0.57-3.52,1.7-4.77c1.13-1.25,3.23-2.17,6.28-2.78c3.66-0.73,6.03-1.25,7.12-1.55
		c1.09-0.3,2.24-0.68,3.45-1.16c0-1.2-0.25-2.04-0.74-2.52c-0.5-0.48-1.37-0.72-2.61-0.72c-1.6,0-2.79,0.26-3.59,0.77
		C111.73,101.42,111.22,102.17,110.84,103.27z M119.3,108.4c-1.34,0.48-2.74,0.9-4.19,1.27c-1.98,0.53-3.24,1.05-3.76,1.56
		c-0.54,0.53-0.81,1.13-0.81,1.8c0,0.77,0.27,1.39,0.8,1.88c0.54,0.49,1.32,0.73,2.36,0.73c1.09,0,2.1-0.26,3.03-0.79
		c0.93-0.53,1.6-1.17,1.99-1.93c0.39-0.76,0.59-1.75,0.59-2.96V108.4z"/>
	<path class="st1" d="M134.68,95.03h9.08v4.15c1.36-1.69,2.73-2.9,4.12-3.63c1.39-0.73,3.08-1.09,5.08-1.09
		c2.7,0,4.81,0.8,6.34,2.41s2.29,4.09,2.29,7.44v16.17h-9.8v-13.99c0-1.6-0.3-2.73-0.89-3.39c-0.59-0.66-1.42-0.99-2.49-0.99
		c-1.18,0-2.14,0.45-2.88,1.34s-1.1,2.5-1.1,4.82v12.22h-9.75V95.03z"/>
	<path class="st1" d="M166.91,112.59l9.7-1.22c0.26,1.36,0.69,2.32,1.29,2.88c0.61,0.56,1.35,0.84,2.23,0.84
		c1.57,0,2.79-0.79,3.67-2.37c0.64-1.17,1.12-3.63,1.44-7.4c-1.17,1.2-2.36,2.08-3.59,2.64c-1.23,0.56-2.65,0.84-4.27,0.84
		c-3.15,0-5.8-1.12-7.97-3.35c-2.17-2.24-3.25-5.06-3.25-8.48c0-2.33,0.55-4.46,1.65-6.37c1.1-1.92,2.62-3.37,4.55-4.35
		s4.36-1.47,7.28-1.47c3.51,0,6.33,0.6,8.46,1.81c2.12,1.21,3.82,3.12,5.09,5.75c1.27,2.63,1.9,6.1,1.9,10.41
		c0,6.34-1.33,10.99-4,13.93c-2.67,2.95-6.37,4.42-11.09,4.42c-2.79,0-5-0.32-6.61-0.97s-2.96-1.59-4.03-2.84
		S167.49,114.46,166.91,112.59z M184.88,96.92c0-1.9-0.48-3.39-1.44-4.47s-2.13-1.62-3.5-1.62c-1.29,0-2.37,0.49-3.22,1.46
		c-0.85,0.97-1.28,2.44-1.28,4.38c0,1.96,0.44,3.47,1.33,4.5c0.89,1.04,1.99,1.56,3.32,1.56c1.37,0,2.52-0.5,3.43-1.51
		C184.43,100.23,184.88,98.79,184.88,96.92z"/>
	<path class="st1" d="M199.21,102.77c0-6.68,1.2-11.35,3.61-14.02c2.4-2.67,6.07-4,10.99-4c2.36,0,4.3,0.29,5.82,0.87
		c1.52,0.58,2.76,1.34,3.71,2.28c0.96,0.93,1.71,1.92,2.26,2.95c0.55,1.03,0.99,2.23,1.33,3.61c0.66,2.62,0.98,5.35,0.98,8.19
		c0,6.37-1.08,11.04-3.23,13.99c-2.16,2.96-5.87,4.43-11.14,4.43c-2.96,0-5.34-0.47-7.16-1.41c-1.82-0.94-3.32-2.32-4.48-4.15
		c-0.85-1.29-1.51-3.06-1.98-5.31C199.45,107.97,199.21,105.49,199.21,102.77z M208.89,102.79c0,4.47,0.4,7.53,1.19,9.17
		c0.79,1.64,1.94,2.46,3.44,2.46c0.99,0,1.85-0.35,2.58-1.04s1.26-1.79,1.61-3.29c0.34-1.5,0.52-3.84,0.52-7.02
		c0-4.66-0.4-7.8-1.19-9.41c-0.79-1.6-1.98-2.41-3.56-2.41c-1.61,0-2.78,0.82-3.5,2.46S208.89,98.37,208.89,102.79z"/>
	<path class="st1" d="M246.51,91.6c0,1.88-0.67,3.5-2.01,4.84c-1.34,1.34-2.96,2.01-4.86,2.01c-1.88,0-3.5-0.67-4.84-2.01
		c-1.34-1.34-2.01-2.96-2.01-4.84c0-1.9,0.67-3.52,2.01-4.85c1.34-1.33,2.96-2,4.84-2c1.9,0,3.52,0.67,4.86,2
		C245.84,88.09,246.51,89.7,246.51,91.6z M242.05,91.58c0-0.67-0.24-1.25-0.71-1.73c-0.47-0.48-1.04-0.72-1.71-0.72
		s-1.25,0.24-1.72,0.72c-0.48,0.48-0.72,1.05-0.72,1.73s0.24,1.24,0.72,1.71c0.48,0.47,1.05,0.71,1.72,0.71s1.24-0.24,1.71-0.71
		C241.82,92.82,242.05,92.25,242.05,91.58z"/>
</g>
<path class="st3" d="M111.57,280.52c-4.28,0-8.3-2.6-9.92-6.83c-15.01-39.39-20.09-43.01-48.57-50.17c-3.6-0.9-7.01-1.62-10.21-2.29
	c-16.24-3.41-33.03-6.95-38.38-30.14c-2.95-12.8,3.95-26.76,10.03-39.08c2.17-4.41,5.34-10.82,6.04-13.9
	c-0.88-1.18-2.06-2.7-3.37-4.39c-2.94-3.81-6.47-8.39-9.03-12.01c-2.75-3.89-3.68-8.79-2.53-13.44c1.14-4.63,4.22-8.51,8.45-10.66
	C36.71,86.11,49.1,79.75,54.34,77.02c0.08-0.46,0.17-0.94,0.24-1.36c0.5-2.91,1.18-6.91,2.74-11.61
	c15.93-48.01,69.06-64.94,114.71-60.4c67.12,6.67,109.35,54.54,107.59,121.96c-0.81,31.04-13.27,85.82-86.88,107.27
	c1.7,6.34,9.38,19.55,17.94,30.49c3.62,4.61,2.8,11.28-1.81,14.9c-4.62,3.61-11.28,2.8-14.9-1.81
	c-10.27-13.12-26.77-37.35-21.84-52.22c1.82-5.48,6.01-9.36,11.8-10.93c60.07-16.31,73.65-57,74.47-88.25
	c1.47-56.29-32.43-94.72-88.48-100.29c-37.18-3.68-80.23,9.09-92.47,45.97c-1.05,3.17-1.54,6-1.96,8.49
	c-0.73,4.26-1.48,8.66-4.83,12.38c-1.68,1.86-1.74,1.93-41.88,22.33c1.73,2.3,3.57,4.68,5.21,6.81c2.18,2.82,4.03,5.24,4.97,6.57
	c6.71,9.54,0.82,21.46-5.41,34.08c-4.06,8.23-9.63,19.5-8.38,24.92c2.12,9.18,5.54,10.66,22.07,14.14c3.45,0.73,7.13,1.5,11.02,2.48
	c36.82,9.25,46.27,18.7,63.23,63.19c2.09,5.48-0.66,11.61-6.14,13.7C114.14,280.29,112.86,280.52,111.57,280.52L111.57,280.52z"/>
</svg>
