<svg xmlns="http://www.w3.org/2000/svg" viewBox="0 0 283.46 283.46"><title>橘</title><path d="M230,11.8H37.11A17.53,17.53,0,0,0,19.58,29.33V264.25a17.52,17.52,0,0,0,17.53,17.52H230a33.93,33.93,0,0,0,33.93-33.93V45.73A33.93,33.93,0,0,0,230,11.8Zm17.17,236A17.18,17.18,0,0,1,230,265H37.11a.77.77,0,0,1-.77-.77V239.38h0V54.56h0V29.33a.76.76,0,0,1,.77-.77H179.48c.37-.35.73-.69,1.13-1a21.72,21.72,0,0,1,14-4.53q10.45,0,16.55,5.14c.15.12.28.27.43.4H230a17.17,17.17,0,0,1,17.17,17.17Z" fill="#323232"/><path d="M205.22,1.69H125.93a20.9,20.9,0,0,0-20.84,20.84V196.15l60.49-24.09,60.48,24.09V22.53A20.9,20.9,0,0,0,205.22,1.69ZM177.53,149.1h-23V126.92h23Zm22.19-64.83q-4.09,5.67-14.16,12.91-5.51,3.93-7.24,7.08Q176,108.51,176,116.37H155.19q0-12.27,2.52-17.78,3.15-6.77,13.53-14.16Q181,77.66,181,68.85q0-8.49-5-12.43-3.93-3.14-10.23-3.14-7.23,0-11.56,4t-5.43,14.08l-22.19.16q0-18.72,12.43-28.64,10.23-8.18,25.34-8.18,18.88,0,29.89,9.28,10.39,8.65,10.39,24.23A27.15,27.15,0,0,1,199.72,84.27Z" fill="#f35612"/><rect x="67.15" y="11.8" width="16.76" height="269.97" fill="#323232"/></svg>