<?xml version="1.0" encoding="utf-8"?>
<!-- Generator: Adobe Illustrator 23.0.3, SVG Export Plug-In . SVG Version: 6.00 Build 0)  -->
<svg version="1.1" id="图层_1" xmlns="http://www.w3.org/2000/svg" xmlns:xlink="http://www.w3.org/1999/xlink" x="0px" y="0px"
	 viewBox="0 0 283.46 283.46" style="enable-background:new 0 0 283.46 283.46;" xml:space="preserve">
<style type="text/css">
	.st0{fill:#CDCDCD;}
	.st1{fill:#5CB85C;}
	.st2{fill:#313232;}
	.st3{fill:#323232;}
	.st4{fill:none;}
</style>
<path class="st0" d="M170.79,112.67h87.17c10.7,0,19.37,8.62,19.37,19.37v125.92c0,10.7-8.62,19.37-19.37,19.37H132.05
	c-10.7,0-19.37-8.62-19.37-19.37v-87.17H25.5c-10.7,0-19.37-8.62-19.37-19.37V25.5c0-10.7,8.62-19.37,19.37-19.37h125.92
	c10.7,0,19.37,8.62,19.37,19.37V112.67z M170.79,132.05v19.37c0,10.7-8.62,19.37-19.37,19.37h-19.37v77.5
	c0,5.35,4.33,9.68,9.68,9.68h106.55c5.34,0,9.68-4.33,9.68-9.68c0,0,0,0,0,0V141.73c0-5.34-4.33-9.68-9.68-9.68l0,0L170.79,132.05
	L170.79,132.05z M25.5,35.18v106.55c0,5.35,4.33,9.68,9.68,9.68h106.55c5.34,0,9.68-4.33,9.68-9.68c0,0,0,0,0,0V35.19
	c0.01-5.34-4.32-9.68-9.67-9.69h0H35.19C29.84,25.5,25.51,29.83,25.5,35.18C25.5,35.17,25.5,35.18,25.5,35.18z M176.91,238.1H161.1
	l27.89-76.99h19.57l27.04,77h-16.64l-5.83-16.24h-30.38L176.91,238.1L176.91,238.1z M186.91,208.96h22.05l-10.4-32.87h-0.42
	L186.91,208.96L186.91,208.96z M257.96,83.62h-19.37c0-21.4-17.35-38.74-38.74-38.74V25.5C231.94,25.5,257.96,51.52,257.96,83.62z
	 M25.5,199.85h19.37c0,21.4,17.35,38.74,38.74,38.74v19.37C51.52,257.96,25.5,231.94,25.5,199.85z"/>
<path class="st1" d="M95.11,60.15v-10.4c0-3.05,0.42-5.69,1.25-7.9c0.22-0.38,0.37-0.81,0.42-1.25c0-0.28-0.98-0.55-2.92-0.83H79.71
	v20.39H45.59v48.7h14.15v-7.5h20.39v35.8h14.98v-35.8h20.81v6.25h15.4V60.15H95.11z M80.13,90.12h-20.4V71.81l0.01,0.01h20.39V90.12
	z M115.92,90.12L115.92,90.12l-20.81,0.01V71.82h20.81V90.12z"/>
</svg>
