<?xml version="1.0" encoding="utf-8"?>
<!-- Generator: Adobe Illustrator 23.0.3, SVG Export Plug-In . SVG Version: 6.00 Build 0)  -->
<svg version="1.1" id="图层_1" xmlns="http://www.w3.org/2000/svg" xmlns:xlink="http://www.w3.org/1999/xlink" x="0px" y="0px"
	 viewBox="0 0 283.46 283.46" style="enable-background:new 0 0 283.46 283.46;" xml:space="preserve">
<style type="text/css">
	.st0{fill:#CDCDCD;}
	.st1{fill:#F35612;}
	.st2{fill:#313232;}
	.st3{fill:#323232;}
	.st4{fill:none;}
</style>
<path class="st1" d="M141.73,0C64.25,0,0,64.25,0,141.73s64.25,141.73,141.73,141.73s141.73-64.25,141.73-141.73S219.21,0,141.73,0z
	 M202.2,181.42c5.67,5.67,5.67,13.23,0,18.9c-5.67,5.67-13.23,5.67-18.9,0l-39.69-39.69l-41.57,41.57c-5.67,5.67-15.12,5.67-20.79,0
	c-5.67-5.67-5.67-15.12,0-20.79l41.57-41.57l-39.69-39.69c-5.67-5.67-5.67-13.23,0-18.9c5.67-5.67,13.23-5.67,18.9,0l39.69,39.69
	l41.57-41.57c5.67-5.67,15.12-5.67,20.79,0c5.67,5.67,5.67,15.12,0,20.79l-41.57,41.57L202.2,181.42L202.2,181.42z"/>
</svg>
