<svg xmlns="http://www.w3.org/2000/svg" viewBox="0 0 116.91 103.79"><title>资源 4</title><g id="图层_2" data-name="图层 2"><g id="宽_图像" data-name="宽 图像"><path d="M116.91,29.24,58.45,0,0,29.24,58.45,58.48Zm-58.46-20,40,20-40,20-40-20Z"/><polygon points="90.85 48.07 98.49 51.89 58.45 71.92 18.42 51.89 26.06 48.07 16.85 43.47 0 51.89 58.45 81.13 116.91 51.89 100.06 43.47 90.85 48.07"/><polygon points="90.85 70.73 98.49 74.55 58.45 94.57 18.42 74.55 26.06 70.73 16.85 66.12 0 74.55 58.45 103.79 116.91 74.55 100.06 66.12 90.85 70.73"/></g></g></svg>