<svg xmlns="http://www.w3.org/2000/svg" viewBox="0 0 109.32 108.64"><title>资源 2</title><g id="图层_2" data-name="图层 2"><g id="宽_图像" data-name="宽 图像"><polygon points="102.16 96.04 83.6 77.48 83.6 82.93 78.16 82.93 96.72 101.48 96.72 108.64 109.32 108.64 109.32 96.04 102.16 96.04"/><polygon points="52.99 40.88 12.12 0 0.67 0 0.67 11.45 41.55 52.32 52.99 40.88"/><polygon points="78.71 68.11 86.41 60.41 82.47 56.47 75.53 63.41 67.77 55.65 56.32 67.1 64.09 74.86 57.15 81.8 61.09 85.74 68.78 78.04 78.71 78.04 78.71 68.11"/><polygon points="108.64 11.44 108.64 0 97.2 0 33.79 63.41 26.84 56.47 22.91 60.41 30.61 68.11 30.61 78.04 40.53 78.04 48.23 85.74 52.17 81.8 45.23 74.86 108.64 11.44"/><polygon points="25.72 77.48 7.16 96.04 0 96.04 0 108.64 12.6 108.64 12.6 101.48 31.16 82.93 25.72 82.93 25.72 77.48"/></g></g></svg>