<svg xmlns="http://www.w3.org/2000/svg" viewBox="0 0 106.41 99.09"><title>资源 5</title><g id="图层_2" data-name="图层 2"><g id="宽_图像" data-name="宽 图像"><rect x="26.95" y="89.28" width="52.53" height="9.81"/><path d="M53.21,68.86A31.68,31.68,0,0,0,84.89,37.17V0H21.51V37.17A31.69,31.69,0,0,0,53.21,68.86Zm-21.88-59H75.08V37.18a21.88,21.88,0,0,1-43.75,0Z"/><path d="M86.36,6.62v9.81H96.6V28.7A18.58,18.58,0,0,1,85.23,45.8,32.93,32.93,0,0,1,79.7,57.11L82,56.79A28.47,28.47,0,0,0,106.41,28.7V6.62Z"/><path d="M9.81,28.7V16.43H20.07V6.62H0V28.7A28.47,28.47,0,0,0,24.43,56.79l2.34.33a32.91,32.91,0,0,1-5.55-11.31A18.58,18.58,0,0,1,9.81,28.7Z"/><rect x="43.2" y="77.84" width="20.02" height="9.81"/><polygon points="50.12 44.1 57.68 44.1 57.68 18.13 47.09 18.13 47.09 25.7 50.12 25.7 50.12 44.1"/><path d="M53.21,70.32a33,33,0,0,1-4.9-.37v6.26h9.81V70A33.29,33.29,0,0,1,53.21,70.32Z"/></g></g></svg>