<svg xmlns="http://www.w3.org/2000/svg" viewBox="0 0 171.29 152.07"><title>资源 4</title><g id="图层_2" data-name="图层 2"><g id="宽_图像" data-name="宽 图像"><path d="M171.29,42.84,85.65,0,0,42.84,85.65,85.68ZM85.65,13.5,144.3,42.84,85.65,72.18,27,42.84Z"/><polygon points="133.1 70.43 144.3 76.03 85.65 105.37 26.99 76.03 38.19 70.43 24.69 63.68 0 76.03 85.65 118.88 171.29 76.03 146.6 63.68 133.1 70.43"/><polygon points="133.1 103.63 144.3 109.23 85.65 138.56 26.99 109.23 38.19 103.63 24.69 96.88 0 109.23 85.65 152.07 171.29 109.23 146.6 96.88 133.1 103.63"/></g></g></svg>