<svg xmlns="http://www.w3.org/2000/svg" viewBox="0 0 146.29 136.23"><title>资源 5</title><g id="图层_2" data-name="图层 2"><g id="宽_图像" data-name="宽 图像"><rect x="37.05" y="122.73" width="72.22" height="13.49"/><path d="M73.15,94.67A43.56,43.56,0,0,0,116.71,51.1V0H29.58V51.1A43.57,43.57,0,0,0,73.15,94.67ZM43.07,13.49h60.15V51.11a30.08,30.08,0,1,1-60.15,0Z"/><path d="M118.72,9.1V22.59H132.8V39.46A25.54,25.54,0,0,1,117.17,63a45,45,0,0,1-7.61,15.56l3.14-.44a39.16,39.16,0,0,0,33.59-38.62V9.1Z"/><path d="M13.49,39.46V22.59h14.1V9.1H0V39.46A39.16,39.16,0,0,0,33.59,78.08l3.21.45A45.43,45.43,0,0,1,29.17,63,25.55,25.55,0,0,1,13.49,39.46Z"/><rect x="59.4" y="107.01" width="27.52" height="13.49"/><polygon points="68.9 60.63 79.3 60.63 79.3 24.93 64.74 24.93 64.74 35.33 68.9 35.33 68.9 60.63"/><path d="M73.15,96.67a45.41,45.41,0,0,1-6.74-.5v8.61H79.9v-8.6A45.75,45.75,0,0,1,73.15,96.67Z"/></g></g></svg>