<svg xmlns="http://www.w3.org/2000/svg" viewBox="0 0 183.12 181.99"><title>资源 1</title><g id="图层_2" data-name="图层 2"><g id="宽_图像" data-name="宽 图像"><polygon points="171.12 160.88 140.03 129.79 140.03 138.91 130.92 138.91 162.01 169.99 162.01 181.99 183.12 181.99 183.12 160.88 171.12 160.88"/><polygon points="88.77 68.47 20.3 0 1.13 0 1.13 19.17 69.6 87.64 88.77 68.47"/><polygon points="131.85 114.09 144.75 101.19 138.15 94.59 126.52 106.22 113.52 93.22 94.35 112.39 107.35 125.39 95.72 137.02 102.32 143.62 115.22 130.72 131.85 130.72 131.85 114.09"/><polygon points="181.99 19.17 181.99 0 162.82 0 56.59 106.22 44.97 94.59 38.37 101.19 51.27 114.09 51.27 130.72 67.9 130.72 80.79 143.62 87.39 137.02 75.77 125.39 181.99 19.17"/><polygon points="43.08 129.79 12 160.88 0 160.88 0 181.99 21.11 181.99 21.11 169.99 52.2 138.91 43.08 138.91 43.08 129.79"/></g></g></svg>